<svg xmlns="http://www.w3.org/2000/svg" aria-hidden="true" style="position:absolute;overflow:hidden"><defs><symbol id="icon-handshake-o" viewBox="0 0 36 28"><path d="M3 18c1.313 0 1.313-2 0-2s-1.313 2 0 2zm23.016-.906c-1.234-1.609-2.438-3.25-3.844-4.719l-1.953 2.188c-1.719 1.953-4.797 1.906-6.469-.094a3.806 3.806 0 0 1 .031-4.922l2.766-3.219C15.578 5.828 14.406 6 13.36 6c-.922 0-1.813.375-2.469 1.031L8.422 9.5H6V18c.688 0 1.312-.094 1.859.438L12.5 23c.953.922 2.187 1.734 3.547 1.734.703 0 1.453-.234 1.953-.734 1.172.406 2.531-.25 2.891-1.453a2.51 2.51 0 0 0 1.984-.688c.359-.328.828-.984.781-1.5.141.141.484.156.672.156 1.859 0 2.828-1.953 1.687-3.422zM28.5 18H30v-8h-1.453l-2.453-2.812A3.543 3.543 0 0 0 23.453 6h-2.609c-.875 0-1.719.391-2.281 1.047l-3.266 3.797a1.82 1.82 0 0 0-.016 2.344c.891 1.062 2.531 1.078 3.453.047l3.016-3.406c.719-.797 2.031-.047 1.703.969.594.688 1.234 1.359 1.813 2.047.781.969 1.531 1.984 2.297 2.969.484.625.844 1.375.938 2.188zm4.5 0c1.313 0 1.313-2 0-2s-1.313 2 0 2zm3-9v10c0 .547-.453 1-1 1h-6.781c-.562 1.359-1.797 2.266-3.234 2.469-.672.984-1.703 1.734-2.859 1.984-.859 1.094-2.25 1.75-3.641 1.656-2.578 1.453-5.484.187-7.406-1.703L6.595 20H1.001c-.547 0-1-.453-1-1V8.5c0-.547.453-1 1-1h6.578C9.392 5.687 10.641 4 13.36 4h1.828c1.016 0 2 .313 2.828.875A5.044 5.044 0 0 1 20.844 4h2.609c2.969 0 4.203 1.937 6 4H35c.547 0 1 .453 1 1z"/></symbol><symbol id="icon-camera" viewBox="0 0 32 32"><path d="M9.5 19a6.5 6.5 0 1 0 13 0 6.5 6.5 0 0 0-13 0zM30 8h-7c-.5-2-1-4-3-4h-8c-2 0-2.5 2-3 4H2c-1.1 0-2 .9-2 2v18c0 1.1.9 2 2 2h28c1.1 0 2-.9 2-2V10c0-1.1-.9-2-2-2zM16 27.875c-4.902 0-8.875-3.973-8.875-8.875s3.973-8.875 8.875-8.875 8.875 3.973 8.875 8.875-3.973 8.875-8.875 8.875zM30 14h-4v-2h4v2z"/></symbol><symbol id="icon-coin-dollar" viewBox="0 0 32 32"><path d="M15 2C6.716 2 0 8.716 0 17s6.716 15 15 15c8.284 0 15-6.716 15-15S23.284 2 15 2zm0 27C8.373 29 3 23.627 3 17S8.373 5 15 5s12 5.373 12 12-5.373 12-12 12zm1-13v-4h4v-2h-4V8h-2v2h-4v8h4v4h-4v2h4v2h2v-2h4v-8h-4zm-2 0h-2v-4h2v4zm4 6h-2v-4h2v4z"/></symbol><symbol id="icon-leaf" viewBox="0 0 32 32"><path d="M31.604 4.203C28.143 1.58 22.817.014 17.357.014 10.603.014 5.1 2.372 2.258 6.483.923 8.414.185 10.7.064 13.279c-.108 2.296.278 4.835 1.146 7.567C4.175 11.959 12.454 4.999 22 4.999c0 0-8.932 2.351-14.548 9.631-.003.004-.078.097-.207.272a21.055 21.055 0 0 0-2.846 5.166 30.771 30.771 0 0 0-2.4 11.931h4s-.607-3.819.449-8.212c1.747.236 3.308.353 4.714.353 3.677 0 6.293-.796 8.231-2.504 1.736-1.531 2.694-3.587 3.707-5.764 1.548-3.325 3.302-7.094 8.395-10.005a1 1 0 0 0 .108-1.666z"/></symbol><symbol id="icon-checkmark2" viewBox="0 0 32 32"><path d="M12.42 28.678-.013 16.44l6.168-6.071 6.265 6.167L25.846 3.322l6.168 6.071L12.42 28.678zM3.372 16.441l9.048 8.905L28.628 9.393l-2.782-2.739L12.42 19.868l-6.265-6.167-2.782 2.739z"/></symbol><symbol id="icon-instagram1" viewBox="0 0 32 32"><path fill="#e4405f" d="M16 0c-4.347 0-4.889.02-6.596.096C7.7.176 6.54.444 5.52.84c-1.052.408-1.945.956-2.835 1.845S1.246 4.466.84 5.52C.444 6.54.175 7.7.096 9.404.016 11.111 0 11.653 0 16s.02 4.889.096 6.596c.08 1.703.348 2.864.744 3.884a7.854 7.854 0 0 0 1.845 2.835A7.807 7.807 0 0 0 5.52 31.16c1.021.395 2.181.665 3.884.744 1.707.08 2.249.096 6.596.096s4.889-.02 6.596-.096c1.703-.08 2.864-.349 3.884-.744a7.867 7.867 0 0 0 2.835-1.845 7.799 7.799 0 0 0 1.845-2.835c.395-1.02.665-2.181.744-3.884.08-1.707.096-2.249.096-6.596s-.02-4.889-.096-6.596c-.08-1.703-.349-2.865-.744-3.884a7.859 7.859 0 0 0-1.845-2.835A7.786 7.786 0 0 0 26.48.84C25.46.444 24.299.175 22.596.096 20.889.016 20.347 0 16 0zm0 2.88c4.271 0 4.78.021 6.467.095 1.56.073 2.407.332 2.969.553.749.289 1.28.636 1.843 1.195a4.95 4.95 0 0 1 1.195 1.841c.219.563.48 1.409.551 2.969.076 1.688.093 2.195.093 6.467s-.02 4.78-.099 6.467c-.081 1.56-.341 2.407-.561 2.969-.299.749-.639 1.28-1.199 1.843a5.002 5.002 0 0 1-1.84 1.195c-.56.219-1.42.48-2.98.551-1.699.076-2.199.093-6.479.093-4.281 0-4.781-.02-6.479-.099-1.561-.081-2.421-.341-2.981-.561-.759-.299-1.28-.639-1.839-1.199a4.867 4.867 0 0 1-1.2-1.84c-.22-.56-.479-1.42-.56-2.98-.06-1.68-.081-2.199-.081-6.459 0-4.261.021-4.781.081-6.481.081-1.56.34-2.419.56-2.979.28-.76.639-1.28 1.2-1.841.559-.559 1.08-.919 1.839-1.197.56-.221 1.401-.481 2.961-.561 1.7-.06 2.2-.08 6.479-.08zm0 4.904A8.215 8.215 0 0 0 7.784 16c0 4.54 3.68 8.216 8.216 8.216 4.54 0 8.216-3.68 8.216-8.216 0-4.54-3.68-8.216-8.216-8.216zm0 13.549c-2.947 0-5.333-2.387-5.333-5.333s2.387-5.333 5.333-5.333 5.333 2.387 5.333 5.333-2.387 5.333-5.333 5.333zM26.461 7.46a1.921 1.921 0 0 1-3.84 0 1.92 1.92 0 0 1 3.84 0z" style="fill:var(--color3,#e4405f)"/></symbol><symbol id="icon-telegram" viewBox="0 0 32 32"><path fill="#2ca5e0" d="m31.88 5.053-4.813 22.733c-.333 1.613-1.307 2-2.667 1.253l-7.333-5.427-3.547 3.427c-.4.4-.733.747-1.467.747-.96 0-.8-.36-1.12-1.267L8.4 18.266l-7.267-2.267c-1.573-.467-1.587-1.547.347-2.333L29.827 2.733c1.293-.573 2.533.32 2.053 2.32z" style="fill:var(--color2,#2ca5e0)"/></symbol><symbol id="icon-facebook2" viewBox="0 0 32 32"><path fill="#1877f2" d="M31.997 15.999C31.997 7.163 24.834 0 15.998 0S-.001 7.163-.001 15.999c0 7.985 5.851 14.604 13.499 15.804v-11.18H9.436v-4.625h4.062v-3.525c0-4.01 2.389-6.225 6.043-6.225 1.75 0 3.581.313 3.581.313v3.937h-2.017c-1.987 0-2.607 1.233-2.607 2.498v3.001h4.437l-.709 4.625h-3.728v11.18c7.649-1.2 13.499-7.819 13.499-15.804z" style="fill:var(--color1,#1877f2)"/></symbol><symbol id="arrow-up" viewBox="0 0 32 32"><path d="M0 16c0 8.837 7.163 16 16 16s16-7.163 16-16S24.837 0 16 0 0 7.163 0 16zm29 0c0 7.18-5.82 13-13 13S3 23.18 3 16 8.82 3 16 3s13 5.82 13 13z"/><path d="m22.086 20.914 2.829-2.829-8.914-8.914-8.914 8.914 2.828 2.828 6.086-6.086z"/></symbol><symbol id="woman-icon" viewBox="0 0 36 32"><path d="M22.22 20.726a.485.485 0 0 0-.425.155.499.499 0 0 0-.126.435c.276 1.45 1.205 3.44 4.057 4.679.338.146.86.26 1.522.403 2.478.536 6.622 1.434 7.64 5.232a.5.5 0 0 0 .967-.26c-1.177-4.387-5.872-5.404-8.395-5.95-.584-.127-1.089-.236-1.336-.344-1.714-.744-2.821-1.848-3.301-3.286 4.762.354 6.918-1.543 7.013-1.629a.5.5 0 0 0-.088-.805C27 17.786 27 12.361 27 10.318 27 4.605 23.152.076 18.219.005a5.875 5.875 0 0 0-.141-.003h-.001C13.072.03 9 4.564 9 10.11c0 2.043 0 7.469-2.748 9.038a.503.503 0 0 0-.06.829c.138.107 3.188 2.441 6.941 1.732-.502 1.378-1.594 2.438-3.258 3.161-.241.105-.721.22-1.277.352-2.54.604-7.269 1.729-8.453 6.147a.5.5 0 0 0 .967.259c1.029-3.844 5.217-4.839 7.718-5.435.627-.149 1.122-.267 1.444-.406 2.852-1.239 3.78-3.229 4.057-4.679a.497.497 0 0 0-.159-.467.497.497 0 0 0-.482-.104c-2.707.852-5.208-.32-6.301-.97C10 17.381 10 12.35 10 10.11c0-4.997 3.626-9.083 8.12-9.11l.106.006C22.658 1.069 26 5.072 26 10.318c0 2.241 0 7.283 2.622 9.469-.903.516-2.962 1.351-6.402.939z"/></symbol><symbol id="close-icon" viewBox="0 0 11 11"><path d="M11 1.108 9.892 0 5.5 4.392 1.108 0 0 1.108 4.392 5.5 0 9.892 1.108 11 5.5 6.608 9.892 11 11 9.892 6.608 5.5 11 1.108Z"/></symbol><symbol id="person-icon" viewBox="0 0 18 18"><path d="M9 9a3 3 0 1 0 0-6 3 3 0 1 0 0 6Zm0 1.5c-2.003 0-6 1.005-6 3v.75c0 .412.337.75.75.75h10.5c.412 0 .75-.338.75-.75v-.75c0-1.995-3.998-3-6-3Z"/></symbol><symbol id="phone-icon" viewBox="0 0 18 18"><path d="m13.996 11.123-1.838-.21a1.44 1.44 0 0 0-1.187.412l-1.332 1.332a10.888 10.888 0 0 1-4.769-4.77L6.21 6.55a1.44 1.44 0 0 0 .412-1.187l-.21-1.824a1.448 1.448 0 0 0-1.44-1.28H3.72c-.818 0-1.498.68-1.448 1.497.384 6.18 5.327 11.116 11.5 11.5.817.05 1.498-.63 1.498-1.448v-1.252a1.434 1.434 0 0 0-1.274-1.432Z"/></symbol><symbol id="web-icon" viewBox="0 0 520 520"><g fill="#104bef"><path d="M2395 4423c-87-8-262-46-363-79-509-167-912-561-1091-1067-119-338-126-766-16-1088 14-41 25-75 25-75 0-1-20-4-45-7-83-12-150-60-191-137-18-33-19-67-19-570 0-529 0-535 22-575 25-47 64-85 113-111 34-18 95-19 1730-19s1696 1 1730 19c49 26 88 64 113 111 22 40 22 46 22 575s0 535-22 575c-37 70-100 116-176 130-20 4-37 10-37 14 0 3 12 42 25 86 81 261 96 575 39 853-8 42-33 131-55 196-234 706-900 1183-1639 1174-69-1-143-3-165-5zm105-519v-377l-137 7c-227 11-451 29-464 37-15 9 1 54 67 196 112 243 271 419 440 488 103 43 94 78 94-351zm265 336c131-65 256-197 355-376 69-124 133-287 117-295-14-8-241-25-454-35l-143-7v756l33-7c17-3 59-19 92-36zm-723-92c-112-137-209-310-269-479-25-70-31-79-53-79-26 0-263 40-357 60-50 11-52 13-41 33 23 45 256 264 343 323 105 71 243 144 353 184 42 16 78 29 80 30 2 0-23-33-56-72zm1086 38c246-95 471-251 632-439l70-82-48-12c-81-21-343-64-369-61-21 3-30 17-63 107-66 175-167 348-271 464-28 31-48 57-44 57 3 0 45-15 93-34zm-1586-712c84-14 154-27 155-28 2-1-8-54-21-117-26-122-51-306-61-456l-7-93H990v43c0 99 44 301 97 442 26 70 93 210 120 251l14 22 83-19c46-10 153-30 238-45zm2421-22c91-173 147-348 173-542 7-58 14-111 14-117 0-10-70-13-315-13h-315v68c0 99-27 318-59 470-15 72-24 132-19 132 19 0 359 61 408 74 30 8 58 14 61 15s26-39 52-87zm-1903-42c63-5 188-12 278-16l162-7v-607h-750v23c1 117 37 394 71 541l21 88 52-6c28-3 103-10 166-16zm1256-82c31-136 54-304 61-435l6-113h-743v610h36c67 0 422 21 491 30 131 15 125 19 149-92zm-1697-845c11-138 29-277 46-351l5-22-287 2-287 3-32 100c-41 126-64 237-71 343l-6 82h620l12-157zm881-108v-265h-688l-5 23c-13 50-46 309-52 405l-7 102h752v-265zm880 198c0-73-24-287-43-393l-12-65-343-3-342-2v530h740v-67zm765-5c-10-106-40-251-76-361l-31-97h-571l7 43c26 160 36 243 41 345 4 65 8 123 10 130 3 9 75 12 316 12h311l-7-72zm111-632 34-34V898l-34-34-34-34H898l-34 34-34 34v1004l34 34 34 34h3324l34-34z" transform="matrix(.1 0 0 -.1 0 520)"/><path d="M1158 1713c-8-10-18-26-21-35-8-24 187-579 210-595 22-17 64-17 86 0 9 6 44 91 78 187s62 176 64 178c1 1 31-79 65-178 41-118 69-184 81-190 32-18 77-12 93 13 27 40 207 569 201 588-16 48-86 67-117 32-8-10-41-93-73-186-33-92-62-164-66-160-4 5-33 80-64 168-30 87-63 167-72 177-20 22-70 24-93 3-9-8-43-91-76-185-32-93-61-170-64-170s-32 75-64 168c-60 174-78 202-126 202-15 0-34-8-42-17zM2152 1714c-14-10-22-25-22-44 0-42 187-572 207-587 23-18 78-16 94 3 7 8 40 94 74 191l62 176 26-74c15-41 43-119 62-174 20-54 43-107 52-117 21-23 75-23 95 0 9 9 60 142 113 296 81 229 96 283 89 304-12 33-54 50-91 36-30-10-37-25-116-253l-44-124-57 164c-62 174-73 200-90 211-20 14-73 8-88-9-8-10-41-93-73-186-33-92-62-164-66-160-4 5-33 80-64 168-30 87-63 167-72 177-20 22-61 23-91 2zM3140 1710c-11-11-20-30-20-43 0-33 187-557 206-579 22-23 76-24 96 0 9 9 42 92 74 185 32 92 61 167 64 167s32-77 64-170c33-94 67-177 76-185 23-20 73-19 93 3 18 20 207 549 207 579 0 33-29 63-61 63-56 0-64-11-129-201-45-128-66-176-70-163-4 10-33 91-64 179s-64 166-73 173c-24 18-70 15-90-6-10-10-45-95-78-189-33-95-61-171-62-169-2 1-29 78-62 169-32 92-66 176-76 187-23 26-69 26-95 0z" transform="matrix(.1 0 0 -.1 0 520)"/></g></symbol></defs></svg>