<svg xmlns="http://www.w3.org/2000/svg" aria-hidden="true" style="position:absolute;overflow:hidden">
  <defs>
    <symbol id="icon-handshake-o" viewBox="0 0 36 28">
      <path
        d="M3 18c1.313 0 1.313-2 0-2s-1.313 2 0 2zM26.016 17.094c-1.234-1.609-2.438-3.25-3.844-4.719l-1.953 2.188c-1.719 1.953-4.797 1.906-6.469-0.094-1.188-1.437-1.188-3.5 0.031-4.922l2.766-3.219c-0.969-0.5-2.141-0.328-3.187-0.328-0.922 0-1.813 0.375-2.469 1.031l-2.469 2.469h-2.422v8.5c0.688 0 1.312-0.094 1.859 0.438l4.641 4.562c0.953 0.922 2.187 1.734 3.547 1.734 0.703 0 1.453-0.234 1.953-0.734 1.172 0.406 2.531-0.25 2.891-1.453 0.75 0.063 1.437-0.172 1.984-0.688 0.359-0.328 0.828-0.984 0.781-1.5 0.141 0.141 0.484 0.156 0.672 0.156 1.859 0 2.828-1.953 1.687-3.422zM28.5 18h1.5v-8h-1.453l-2.453-2.812c-0.656-0.75-1.641-1.188-2.641-1.188h-2.609c-0.875 0-1.719 0.391-2.281 1.047l-3.266 3.797c-0.578 0.688-0.578 1.656-0.016 2.344 0.891 1.062 2.531 1.078 3.453 0.047l3.016-3.406c0.719-0.797 2.031-0.047 1.703 0.969 0.594 0.688 1.234 1.359 1.813 2.047 0.781 0.969 1.531 1.984 2.297 2.969 0.484 0.625 0.844 1.375 0.938 2.188zM33 18c1.313 0 1.313-2 0-2s-1.313 2 0 2zM36 9v10c0 0.547-0.453 1-1 1h-6.781c-0.562 1.359-1.797 2.266-3.234 2.469-0.672 0.984-1.703 1.734-2.859 1.984-0.859 1.094-2.25 1.75-3.641 1.656-2.578 1.453-5.484 0.187-7.406-1.703l-4.484-4.406h-5.594c-0.547 0-1-0.453-1-1v-10.5c0-0.547 0.453-1 1-1h6.578c1.813-1.813 3.062-3.5 5.781-3.5h1.828c1.016 0 2 0.313 2.828 0.875 0.828-0.562 1.813-0.875 2.828-0.875h2.609c2.969 0 4.203 1.937 6 4h5.547c0.547 0 1 0.453 1 1z">
      </path>
    </symbol>
    <symbol id="icon-camera" viewBox="0 0 32 32">
      <path
        d="M9.5 19c0 3.59 2.91 6.5 6.5 6.5s6.5-2.91 6.5-6.5-2.91-6.5-6.5-6.5-6.5 2.91-6.5 6.5zM30 8h-7c-0.5-2-1-4-3-4h-8c-2 0-2.5 2-3 4h-7c-1.1 0-2 0.9-2 2v18c0 1.1 0.9 2 2 2h28c1.1 0 2-0.9 2-2v-18c0-1.1-0.9-2-2-2zM16 27.875c-4.902 0-8.875-3.973-8.875-8.875s3.973-8.875 8.875-8.875c4.902 0 8.875 3.973 8.875 8.875s-3.973 8.875-8.875 8.875zM30 14h-4v-2h4v2z">
      </path>
    </symbol>
    <symbol id="icon-coin-dollar" viewBox="0 0 32 32">
      <path
        d="M15 2c-8.284 0-15 6.716-15 15s6.716 15 15 15c8.284 0 15-6.716 15-15s-6.716-15-15-15zM15 29c-6.627 0-12-5.373-12-12s5.373-12 12-12c6.627 0 12 5.373 12 12s-5.373 12-12 12zM16 16v-4h4v-2h-4v-2h-2v2h-4v8h4v4h-4v2h4v2h2v-2h4l-0-8h-4zM14 16h-2v-4h2v4zM18 22h-2v-4h2v4z">
      </path>
    </symbol>
    <symbol id="icon-leaf" viewBox="0 0 32 32">
      <path
        d="M31.604 4.203c-3.461-2.623-8.787-4.189-14.247-4.189-6.754 0-12.257 2.358-15.099 6.469-1.335 1.931-2.073 4.217-2.194 6.796-0.108 2.296 0.278 4.835 1.146 7.567 2.965-8.887 11.244-15.847 20.79-15.847 0 0-8.932 2.351-14.548 9.631-0.003 0.004-0.078 0.097-0.207 0.272-1.128 1.509-2.111 3.224-2.846 5.166-1.246 2.963-2.4 7.030-2.4 11.931h4c0 0-0.607-3.819 0.449-8.212 1.747 0.236 3.308 0.353 4.714 0.353 3.677 0 6.293-0.796 8.231-2.504 1.736-1.531 2.694-3.587 3.707-5.764 1.548-3.325 3.302-7.094 8.395-10.005 0.292-0.167 0.48-0.468 0.502-0.804s-0.126-0.659-0.394-0.862z">
      </path>
    </symbol>
    <symbol id="icon-checkmark2" viewBox="0 0 32 32">
      <path
        d="M12.42 28.678l-12.433-12.238 6.168-6.071 6.265 6.167 13.426-13.214 6.168 6.071-19.594 19.285zM3.372 16.441l9.048 8.905 16.208-15.953-2.782-2.739-13.426 13.214-6.265-6.167-2.782 2.739z">
      </path>
    </symbol>
    <symbol id="icon-instagram1" viewBox="0 0 32 32">
      <path fill="#e4405f"
        d="M16 0c-4.347 0-4.889.02-6.596.096C7.7.176 6.54.444 5.52.84c-1.052.408-1.945.956-2.835 1.845S1.246 4.466.84 5.52C.444 6.54.175 7.7.096 9.404.016 11.111 0 11.653 0 16s.02 4.889.096 6.596c.08 1.703.348 2.864.744 3.884.408 1.051.956 1.945 1.845 2.835.889.888 1.781 1.439 2.835 1.845 1.021.395 2.181.665 3.884.744 1.707.08 2.249.096 6.596.096s4.889-.02 6.596-.096c1.703-.08 2.864-.349 3.884-.744 1.051-.408 1.945-.957 2.835-1.845.888-.889 1.439-1.78 1.845-2.835.395-1.02.665-2.181.744-3.884.08-1.707.096-2.249.096-6.596s-.02-4.889-.096-6.596c-.08-1.703-.349-2.865-.744-3.884-.408-1.052-.957-1.945-1.845-2.835-.889-.889-1.78-1.439-2.835-1.845-1.02-.396-2.181-.665-3.884-.744C20.889.016 20.347 0 16 0zm0 2.88c4.271 0 4.78.021 6.467.095 1.56.073 2.407.332 2.969.553.749.289 1.28.636 1.843 1.195.559.56.905 1.092 1.195 1.841.219.563.48 1.409.551 2.969.076 1.688.093 2.195.093 6.467s-.02 4.78-.099 6.467c-.081 1.56-.341 2.407-.561 2.969-.299.749-.639 1.28-1.199 1.843-.559.559-1.099.905-1.84 1.195-.56.219-1.42.48-2.98.551-1.699.076-2.199.093-6.479.093-4.281 0-4.781-.02-6.479-.099-1.561-.081-2.421-.341-2.981-.561-.759-.299-1.28-.639-1.839-1.199-.561-.559-.92-1.099-1.2-1.84-.22-.56-.479-1.42-.56-2.98-.06-1.68-.081-2.199-.081-6.459 0-4.261.021-4.781.081-6.481.081-1.56.34-2.419.56-2.979.28-.76.639-1.28 1.2-1.841.559-.559 1.08-.919 1.839-1.197.56-.221 1.401-.481 2.961-.561 1.7-.06 2.2-.08 6.479-.08zm0 4.904c-4.54 0-8.216 3.68-8.216 8.216 0 4.54 3.68 8.216 8.216 8.216 4.54 0 8.216-3.68 8.216-8.216 0-4.54-3.68-8.216-8.216-8.216zm0 13.549c-2.947 0-5.333-2.387-5.333-5.333s2.387-5.333 5.333-5.333 5.333 2.387 5.333 5.333-2.387 5.333-5.333 5.333zM26.461 7.46c0 1.06-.861 1.92-1.92 1.92-1.06 0-1.92-.861-1.92-1.92s.861-1.919 1.92-1.919c1.057-.001 1.92.86 1.92 1.919z"
        style="fill:var(--color3, #e4405f)" />
    </symbol>
    <symbol id="icon-telegram" viewBox="0 0 32 32">
      <path fill="#2ca5e0"
        d="m31.88 5.053-4.813 22.733c-.333 1.613-1.307 2-2.667 1.253l-7.333-5.427-3.547 3.427c-.4.4-.733.747-1.467.747-.96 0-.8-.36-1.12-1.267L8.4 18.266l-7.267-2.267c-1.573-.467-1.587-1.547.347-2.333L29.827 2.733c1.293-.573 2.533.32 2.053 2.32z"
        style="fill:var(--color2, #2ca5e0)" />
    </symbol>
    <symbol id="icon-facebook2" viewBox="0 0 32 32">
      <path fill="#1877f2"
        d="M31.997 15.999C31.997 7.163 24.834 0 15.998 0S-.001 7.163-.001 15.999c0 7.985 5.851 14.604 13.499 15.804v-11.18H9.436v-4.625h4.062v-3.525c0-4.01 2.389-6.225 6.043-6.225 1.75 0 3.581.313 3.581.313v3.937h-2.017c-1.987 0-2.607 1.233-2.607 2.498v3.001h4.437l-.709 4.625h-3.728v11.18c7.649-1.2 13.499-7.819 13.499-15.804z"
        style="fill:var(--color1, #1877f2)" />
    </symbol>
    <symbol id="arrow-up" viewBox="0 0 32 32">
      <path
        d="M0 16c0 8.837 7.163 16 16 16s16-7.163 16-16S24.837 0 16 0 0 7.163 0 16zm29 0c0 7.18-5.82 13-13 13S3 23.18 3 16 8.82 3 16 3s13 5.82 13 13z" />
      <path d="m22.086 20.914 2.829-2.829-8.914-8.914-8.914 8.914 2.828 2.828 6.086-6.086z" />
    </symbol>
    <symbol id="woman-icon" viewBox="0 0 36 32">
      <path
        d="M22.22 20.726c-0.157-0.024-0.317 0.038-0.425 0.155-0.109 0.116-0.156 0.278-0.126 0.435 0.276 1.45 1.205 3.44 4.057 4.679 0.338 0.146 0.86 0.26 1.522 0.403 2.478 0.536 6.622 1.434 7.64 5.232 0.060 0.223 0.262 0.37 0.483 0.37 0.043 0 0.086-0.006 0.13-0.017 0.267-0.072 0.425-0.346 0.354-0.613-1.177-4.387-5.872-5.404-8.395-5.95-0.584-0.127-1.089-0.236-1.336-0.344-1.714-0.744-2.821-1.848-3.301-3.286 4.762 0.354 6.918-1.543 7.013-1.629 0.118-0.107 0.179-0.266 0.161-0.425s-0.11-0.3-0.249-0.38c-2.748-1.57-2.748-6.995-2.748-9.038 0-5.713-3.848-10.242-8.781-10.313-0.014-0.001-0.121-0.003-0.141-0.003 0 0 0 0-0.001 0-5.005 0.028-9.077 4.562-9.077 10.108 0 2.043 0 7.469-2.748 9.038-0.145 0.083-0.238 0.232-0.251 0.398-0.012 0.166 0.060 0.328 0.191 0.431 0.138 0.107 3.188 2.441 6.941 1.732-0.502 1.378-1.594 2.438-3.258 3.161-0.241 0.105-0.721 0.22-1.277 0.352-2.54 0.604-7.269 1.729-8.453 6.147-0.071 0.268 0.087 0.541 0.354 0.613 0.271 0.067 0.541-0.088 0.613-0.354 1.029-3.844 5.217-4.839 7.718-5.435 0.627-0.149 1.122-0.267 1.444-0.406 2.852-1.239 3.78-3.229 4.057-4.679 0.033-0.173-0.027-0.351-0.159-0.467-0.131-0.117-0.312-0.157-0.482-0.104-2.707 0.852-5.208-0.32-6.301-0.97 2.611-2.186 2.611-7.217 2.611-9.457 0-4.997 3.626-9.083 8.12-9.11 0.005 0 0.102 0.006 0.106 0.006 4.432 0.063 7.774 4.066 7.774 9.312 0 2.241 0 7.283 2.622 9.469-0.903 0.516-2.962 1.351-6.402 0.939z">
      </path>
    </symbol>
    <symbol id="close-icon" viewBox="0 0 11 11">
      <path
        d="M11 1.108 9.892 0 5.5 4.392 1.108 0 0 1.108 4.392 5.5 0 9.892 1.108 11 5.5 6.608 9.892 11 11 9.892 6.608 5.5 11 1.108Z" />
      </path>
    </symbol>
    <symbol id="person-icon" viewBox="0 0 18 18">
      <path
        d="M9 9a3 3 0 1 0 0-6 3 3 0 1 0 0 6Zm0 1.5c-2.003 0-6 1.005-6 3v.75c0 .412.337.75.75.75h10.5c.412 0 .75-.338.75-.75v-.75c0-1.995-3.998-3-6-3Z" />
      </path>
    </symbol>
    <symbol id="phone-icon" viewBox="0 0 18 18">
      <path
        d="m13.996 11.123-1.838-.21a1.44 1.44 0 0 0-1.187.412l-1.332 1.332a10.888 10.888 0 0 1-4.769-4.77L6.21 6.55a1.44 1.44 0 0 0 .412-1.187l-.21-1.824a1.448 1.448 0 0 0-1.44-1.28H3.72c-.818 0-1.498.68-1.448 1.497.384 6.18 5.327 11.116 11.5 11.5.817.05 1.498-.63 1.498-1.448v-1.252a1.434 1.434 0 0 0-1.274-1.432Z" />
      </path>
    </symbol>
    <symbol id="web-icon" viewBox="0 0 520 520">
      <g transform="translate(0.000000,520) scale(0.100000,-0.100000)" fill="#104bef" stroke="none">
        <path d="M2395 4423 c-87 -8 -262 -46 -363 -79 -509 -167 -912 -561 -1091
-1067 -119 -338 -126 -766 -16 -1088 14 -41 25 -75 25 -75 0 -1 -20 -4 -45 -7
-83 -12 -150 -60 -191 -137 -18 -33 -19 -67 -19 -570 0 -529 0 -535 22 -575
25 -47 64 -85 113 -111 34 -18 95 -19 1730 -19 1635 0 1696 1 1730 19 49 26
88 64 113 111 22 40 22 46 22 575 0 529 0 535 -22 575 -37 70 -100 116 -176
130 -20 4 -37 10 -37 14 0 3 12 42 25 86 81 261 96 575 39 853 -8 42 -33 131
-55 196 -234 706 -900 1183 -1639 1174 -69 -1 -143 -3 -165 -5z m105 -519 l0
-377 -137 7 c-227 11 -451 29 -464 37 -15 9 1 54 67 196 112 243 271 419 440
488 103 43 94 78 94 -351z m265 336 c131 -65 256 -197 355 -376 69 -124 133
-287 117 -295 -14 -8 -241 -25 -454 -35 l-143 -7 0 378 0 378 33 -7 c17 -3 59
-19 92 -36z m-723 -92 c-112 -137 -209 -310 -269 -479 -25 -70 -31 -79 -53
-79 -26 0 -263 40 -357 60 -50 11 -52 13 -41 33 23 45 256 264 343 323 105 71
243 144 353 184 42 16 78 29 80 30 2 0 -23 -33 -56 -72z m1086 38 c246 -95
471 -251 632 -439 l70 -82 -48 -12 c-81 -21 -343 -64 -369 -61 -21 3 -30 17
-63 107 -66 175 -167 348 -271 464 -28 31 -48 57 -44 57 3 0 45 -15 93 -34z
m-1586 -712 c84 -14 154 -27 155 -28 2 -1 -8 -54 -21 -117 -26 -122 -51 -306
-61 -456 l-7 -93 -309 0 -309 0 0 43 c0 99 44 301 97 442 26 70 93 210 120
251 l14 22 83 -19 c46 -10 153 -30 238 -45z m2421 -22 c91 -173 147 -348 173
-542 7 -58 14 -111 14 -117 0 -10 -70 -13 -315 -13 l-315 0 0 68 c0 99 -27
318 -59 470 -15 72 -24 132 -19 132 19 0 359 61 408 74 30 8 58 14 61 15 3 1
26 -39 52 -87z m-1903 -42 c63 -5 188 -12 278 -16 l162 -7 0 -303 0 -304 -375
0 -375 0 0 23 c1 117 37 394 71 541 l21 88 52 -6 c28 -3 103 -10 166 -16z
m1256 -82 c31 -136 54 -304 61 -435 l6 -113 -371 0 -372 0 0 305 0 305 36 0
c67 0 422 21 491 30 131 15 125 19 149 -92z m-1697 -845 c11 -138 29 -277 46
-351 l5 -22 -287 2 -287 3 -32 100 c-41 126 -64 237 -71 343 l-6 82 310 0 310
0 12 -157z m881 -108 l0 -265 -344 0 -344 0 -5 23 c-13 50 -46 309 -52 405
l-7 102 376 0 376 0 0 -265z m880 198 c0 -73 -24 -287 -43 -393 l-12 -65 -343
-3 -342 -2 0 265 0 265 370 0 370 0 0 -67z m765 -5 c-10 -106 -40 -251 -76
-361 l-31 -97 -285 0 -286 0 7 43 c26 160 36 243 41 345 4 65 8 123 10 130 3
9 75 12 316 12 l311 0 -7 -72z m111 -632 l34 -34 0 -502 0 -502 -34 -34 -34
-34 -1662 0 -1662 0 -34 34 -34 34 0 502 0 502 34 34 34 34 1662 0 1662 0 34
-34z" />
        <path d="M1158 1713 c-8 -10 -18 -26 -21 -35 -8 -24 187 -579 210 -595 22 -17
64 -17 86 0 9 6 44 91 78 187 34 96 62 176 64 178 1 1 31 -79 65 -178 41 -118
69 -184 81 -190 32 -18 77 -12 93 13 27 40 207 569 201 588 -16 48 -86 67
-117 32 -8 -10 -41 -93 -73 -186 -33 -92 -62 -164 -66 -160 -4 5 -33 80 -64
168 -30 87 -63 167 -72 177 -20 22 -70 24 -93 3 -9 -8 -43 -91 -76 -185 -32
-93 -61 -170 -64 -170 -3 0 -32 75 -64 168 -60 174 -78 202 -126 202 -15 0
-34 -8 -42 -17z" />
        <path d="M2152 1714 c-14 -10 -22 -25 -22 -44 0 -42 187 -572 207 -587 23 -18
78 -16 94 3 7 8 40 94 74 191 l62 176 26 -74 c15 -41 43 -119 62 -174 20 -54
43 -107 52 -117 21 -23 75 -23 95 0 9 9 60 142 113 296 81 229 96 283 89 304
-12 33 -54 50 -91 36 -30 -10 -37 -25 -116 -253 l-44 -124 -57 164 c-62 174
-73 200 -90 211 -20 14 -73 8 -88 -9 -8 -10 -41 -93 -73 -186 -33 -92 -62
-164 -66 -160 -4 5 -33 80 -64 168 -30 87 -63 167 -72 177 -20 22 -61 23 -91
2z" />
        <path d="M3140 1710 c-11 -11 -20 -30 -20 -43 0 -33 187 -557 206 -579 22 -23
76 -24 96 0 9 9 42 92 74 185 32 92 61 167 64 167 3 0 32 -77 64 -170 33 -94
67 -177 76 -185 23 -20 73 -19 93 3 18 20 207 549 207 579 0 33 -29 63 -61 63
-56 0 -64 -11 -129 -201 -45 -128 -66 -176 -70 -163 -4 10 -33 91 -64 179 -31
88 -64 166 -73 173 -24 18 -70 15 -90 -6 -10 -10 -45 -95 -78 -189 -33 -95
-61 -171 -62 -169 -2 1 -29 78 -62 169 -32 92 -66 176 -76 187 -23 26 -69 26
-95 0z" />
    </symbol>
  </defs>
</svg>