<svg xmlns="http://www.w3.org/2000/svg" aria-hidden="true" style="position:absolute;width:0;height:0;overflow:hidden">
  <defs>
    <symbol id="icon-handshake-o" viewBox="0 0 36 28">
      <path
        d="M3 18c1.313 0 1.313-2 0-2s-1.313 2 0 2zm23.016-.906c-1.234-1.609-2.438-3.25-3.844-4.719l-1.953 2.188c-1.719 1.953-4.797 1.906-6.469-.094a3.806 3.806 0 0 1 .031-4.922l2.766-3.219C15.578 5.828 14.406 6 13.36 6c-.922 0-1.813.375-2.469 1.031L8.422 9.5H6V18c.688 0 1.312-.094 1.859.438L12.5 23c.953.922 2.187 1.734 3.547 1.734.703 0 1.453-.234 1.953-.734 1.172.406 2.531-.25 2.891-1.453a2.51 2.51 0 0 0 1.984-.688c.359-.328.828-.984.781-1.5.141.141.484.156.672.156 1.859 0 2.828-1.953 1.687-3.422zM28.5 18H30v-8h-1.453l-2.453-2.812A3.543 3.543 0 0 0 23.453 6h-2.609c-.875 0-1.719.391-2.281 1.047l-3.266 3.797a1.82 1.82 0 0 0-.016 2.344c.891 1.062 2.531 1.078 3.453.047l3.016-3.406c.719-.797 2.031-.047 1.703.969.594.688 1.234 1.359 1.813 2.047.781.969 1.531 1.984 2.297 2.969.484.625.844 1.375.938 2.188zm4.5 0c1.313 0 1.313-2 0-2s-1.313 2 0 2zm3-9v10c0 .547-.453 1-1 1h-6.781c-.562 1.359-1.797 2.266-3.234 2.469-.672.984-1.703 1.734-2.859 1.984-.859 1.094-2.25 1.75-3.641 1.656-2.578 1.453-5.484.187-7.406-1.703L6.595 20H1.001c-.547 0-1-.453-1-1V8.5c0-.547.453-1 1-1h6.578C9.392 5.687 10.641 4 13.36 4h1.828c1.016 0 2 .313 2.828.875A5.044 5.044 0 0 1 20.844 4h2.609c2.969 0 4.203 1.937 6 4H35c.547 0 1 .453 1 1z" />
    </symbol>
    <symbol id="icon-camera" viewBox="0 0 32 32">
      <path
        d="M9.5 19a6.5 6.5 0 1 0 13 0 6.5 6.5 0 0 0-13 0zM30 8h-7c-.5-2-1-4-3-4h-8c-2 0-2.5 2-3 4H2c-1.1 0-2 .9-2 2v18c0 1.1.9 2 2 2h28c1.1 0 2-.9 2-2V10c0-1.1-.9-2-2-2zM16 27.875c-4.902 0-8.875-3.973-8.875-8.875s3.973-8.875 8.875-8.875 8.875 3.973 8.875 8.875-3.973 8.875-8.875 8.875zM30 14h-4v-2h4v2z" />
    </symbol>
    <symbol id="icon-coin-dollar" viewBox="0 0 32 32">
      <path
        d="M15 2C6.716 2 0 8.716 0 17s6.716 15 15 15c8.284 0 15-6.716 15-15S23.284 2 15 2zm0 27C8.373 29 3 23.627 3 17S8.373 5 15 5s12 5.373 12 12-5.373 12-12 12zm1-13v-4h4v-2h-4V8h-2v2h-4v8h4v4h-4v2h4v2h2v-2h4v-8h-4zm-2 0h-2v-4h2v4zm4 6h-2v-4h2v4z" />
    </symbol>
    <symbol id="icon-leaf" viewBox="0 0 32 32">
      <path
        d="M31.604 4.203C28.143 1.58 22.817.014 17.357.014 10.603.014 5.1 2.372 2.258 6.483.923 8.414.185 10.7.064 13.279c-.108 2.296.278 4.835 1.146 7.567C4.175 11.959 12.454 4.999 22 4.999c0 0-8.932 2.351-14.548 9.631-.003.004-.078.097-.207.272a21.055 21.055 0 0 0-2.846 5.166 30.771 30.771 0 0 0-2.4 11.931h4s-.607-3.819.449-8.212c1.747.236 3.308.353 4.714.353 3.677 0 6.293-.796 8.231-2.504 1.736-1.531 2.694-3.587 3.707-5.764 1.548-3.325 3.302-7.094 8.395-10.005a1 1 0 0 0 .108-1.666z" />
    </symbol>
    <symbol id="icon-checkmark2" viewBox="0 0 32 32">
      <path
        d="M12.42 28.678-.013 16.44l6.168-6.071 6.265 6.167L25.846 3.322l6.168 6.071L12.42 28.678zM3.372 16.441l9.048 8.905L28.628 9.393l-2.782-2.739L12.42 19.868l-6.265-6.167-2.782 2.739z" />
    </symbol>
    <symbol id="icon-instagram1" viewBox="0 0 32 32">
      <path
        d="M16 2.881c4.275 0 4.781.019 6.462.094 1.563.069 2.406.331 2.969.55a4.952 4.952 0 0 1 1.837 1.194 5.015 5.015 0 0 1 1.2 1.838c.219.563.481 1.412.55 2.969.075 1.688.094 2.194.094 6.463s-.019 4.781-.094 6.463c-.069 1.563-.331 2.406-.55 2.969a4.94 4.94 0 0 1-1.194 1.837 5.02 5.02 0 0 1-1.837 1.2c-.563.219-1.413.481-2.969.55-1.688.075-2.194.094-6.463.094s-4.781-.019-6.463-.094c-1.563-.069-2.406-.331-2.969-.55a4.952 4.952 0 0 1-1.838-1.194 5.02 5.02 0 0 1-1.2-1.837c-.219-.563-.481-1.413-.55-2.969-.075-1.688-.094-2.194-.094-6.463s.019-4.781.094-6.463c.069-1.563.331-2.406.55-2.969a4.964 4.964 0 0 1 1.194-1.838 5.015 5.015 0 0 1 1.838-1.2c.563-.219 1.412-.481 2.969-.55 1.681-.075 2.188-.094 6.463-.094zM16 0c-4.344 0-4.887.019-6.594.094-1.7.075-2.869.35-3.881.744-1.056.412-1.95.956-2.837 1.85a7.833 7.833 0 0 0-1.85 2.831C.444 6.538.169 7.7.094 9.4.019 11.113 0 11.656 0 16s.019 4.887.094 6.594c.075 1.7.35 2.869.744 3.881.413 1.056.956 1.95 1.85 2.837a7.82 7.82 0 0 0 2.831 1.844c1.019.394 2.181.669 3.881.744 1.706.075 2.25.094 6.594.094s4.888-.019 6.594-.094c1.7-.075 2.869-.35 3.881-.744 1.05-.406 1.944-.956 2.831-1.844s1.438-1.781 1.844-2.831c.394-1.019.669-2.181.744-3.881.075-1.706.094-2.25.094-6.594s-.019-4.887-.094-6.594c-.075-1.7-.35-2.869-.744-3.881a7.506 7.506 0 0 0-1.831-2.844A7.82 7.82 0 0 0 26.482.843C25.463.449 24.301.174 22.601.099c-1.712-.081-2.256-.1-6.6-.1z" />
      <path
        d="M16 7.781c-4.537 0-8.219 3.681-8.219 8.219s3.681 8.219 8.219 8.219 8.219-3.681 8.219-8.219A8.221 8.221 0 0 0 16 7.781zm0 13.55a5.331 5.331 0 1 1 0-10.663 5.331 5.331 0 0 1 0 10.663zM26.462 7.456a1.919 1.919 0 1 1-3.838 0 1.919 1.919 0 0 1 3.838 0z" />
    </symbol>
    <symbol id="icon-telegram" viewBox="0 0 32 32">
      <path
        d="M16 0C7.162 0 0 7.162 0 16s7.162 16 16 16 16-7.163 16-16S24.837 0 16 0zm7.863 10.969-2.625 12.369c-.181.881-.712 1.087-1.45.681l-4-2.956-1.919 1.869c-.225.219-.4.4-.8.4-.519 0-.431-.194-.606-.688L11.1 18.169l-3.956-1.231c-.856-.262-.862-.85.194-1.269l15.412-5.95c.7-.319 1.381.169 1.113 1.25z" />
    </symbol>
  </defs>
</svg>